<svg xmlns="http://www.w3.org/2000/svg" width="16" height="13" fill="none"><path stroke="#FAFAFA" stroke-linecap="round" stroke-linejoin="round" d="m.5 2.75 6.124 4.287c.496.347.744.52 1.013.587.238.06.488.06.726 0 .27-.067.517-.24 1.013-.587L15.5 2.75M4.1 12.5h7.8c1.26 0 1.89 0 2.371-.245.424-.216.768-.56.984-.984.245-.48.245-1.11.245-2.371V4.1c0-1.26 0-1.89-.245-2.371a2.25 2.25 0 0 0-.984-.984C13.791.5 13.162.5 11.9.5H4.1C2.84.5 2.21.5 1.729.745a2.25 2.25 0 0 0-.984.984C.5 2.209.5 2.839.5 4.1v4.8c0 1.26 0 1.89.245 2.371.216.424.56.768.984.984.48.245 1.11.245 2.371.245Z"/></svg>