<svg xmlns="http://www.w3.org/2000/svg" width="20" height="21" fill="none"><path fill="#8BAA36" d="M14.166 2.167a4.18 4.18 0 0 1 4.168 4.166v8.333a4.18 4.18 0 0 1-4.168 4.168H5.833a4.18 4.18 0 0 1-4.166-4.168V6.333a4.18 4.18 0 0 1 4.166-4.166h8.333Zm0-1.667H5.833C2.625.5 0 3.125 0 6.333v8.333C0 17.875 2.625 20.5 5.833 20.5h8.333c3.209 0 5.834-2.625 5.834-5.834V6.333C20 3.125 17.375.5 14.166.5Z"/><path fill="#8BAA36" d="M15.416 6.335a1.25 1.25 0 1 1 0-2.5 1.25 1.25 0 0 1 0 2.5ZM10 7.168a3.334 3.334 0 1 1 0 6.667 3.334 3.334 0 0 1 0-6.667Zm0-1.666a5 5 0 1 0 0 10 5 5 0 0 0 0-10Z"/></svg>