<svg xmlns="http://www.w3.org/2000/svg" width="44" height="44" fill="none"><rect width="44" height="44" fill="#8BAA36" rx="12"/><path stroke="#FAFAFA" stroke-linecap="round" stroke-linejoin="round" stroke-width="2" d="M10 10.102v5.564-.11c0 1.557.68 2.936 1.733 3.828.515.436.855 1.026.855 1.68v9.103c0 1.012.87 1.833 1.941 1.833 1.072 0 1.942-.821 1.942-1.833v-9.104c0-.653.34-1.242.855-1.679 1.053-.892 1.733-2.27 1.733-3.828v-5.454 5.454M14.53 16.111V10M32 11.285c0-.674-.58-1.222-1.294-1.222h-1.294c-2.145 0-3.883 1.642-3.883 3.667v7.333c0 1.594 1.084 2.937 2.588 3.442v5.662c0 1.011.87 1.833 1.942 1.833 1.071 0 1.94-.822 1.94-1.834V11.285Z"/></svg>