<svg xmlns="http://www.w3.org/2000/svg" width="16" height="15" fill="none"><path stroke="#FAFAFA" stroke-linecap="round" stroke-linejoin="round" d="M11.75 6.75V4.5a3.75 3.75 0 1 0-7.5 0v2.25m.6 7.5h6.3c1.26 0 1.89 0 2.371-.245.424-.216.768-.56.984-.984.245-.48.245-1.11.245-2.371v-.3c0-1.26 0-1.89-.245-2.371a2.25 2.25 0 0 0-.984-.984c-.48-.245-1.11-.245-2.371-.245h-6.3c-1.26 0-1.89 0-2.371.245a2.25 2.25 0 0 0-.984.984c-.245.48-.245 1.11-.245 2.371v.3c0 1.26 0 1.89.245 2.371.216.424.56.768.984.984.48.245 1.11.245 2.371.245Z"/></svg>