<svg xmlns="http://www.w3.org/2000/svg" width="84" height="84" fill="none"><path stroke="#C4C4C4" stroke-linecap="round" stroke-linejoin="round" stroke-width="2" d="M74 30V17.976a8 8 0 0 0-7.976-8L54 9.94M74 54v12a8 8 0 0 1-8 8H54M30 9.94l-12.024.04a8 8 0 0 0-7.976 8V30m20 44H18a8 8 0 0 1-8-8V54"/><path fill="#C4C4C4" d="M41.75 49.219c1.64 0 3.035-.574 4.184-1.722 1.148-1.15 1.722-2.544 1.722-4.184 0-1.641-.574-3.036-1.722-4.185-1.149-1.148-2.543-1.722-4.184-1.722-1.64 0-3.035.574-4.184 1.722-1.148 1.15-1.722 2.544-1.722 4.184 0 1.641.574 3.036 1.722 4.185 1.149 1.148 2.543 1.722 4.184 1.722Zm-10.5 4.593c-.722 0-1.34-.256-1.853-.77a2.529 2.529 0 0 1-.772-1.855v-15.75c0-.721.257-1.34.772-1.853a2.524 2.524 0 0 1 1.853-.772h4.134l2.428-2.624h7.876l2.428 2.625h4.134c.722 0 1.34.257 1.855.771.513.514.77 1.132.77 1.853v15.75c0 .722-.257 1.34-.77 1.855a2.531 2.531 0 0 1-1.855.77h-21Z"/></svg>