<svg xmlns="http://www.w3.org/2000/svg" width="20" height="15" fill="none"><path fill="#8BAA36" d="M19.872 3.312c0-1.758-1.294-3.172-2.892-3.172A142.1 142.1 0 0 0 10.354 0H9.65C7.4 0 5.188.04 3.024.14 1.43.14.137 1.563.137 3.32.039 4.71-.003 6.101 0 7.492c-.004 1.39.04 2.782.133 4.175 0 1.758 1.293 3.184 2.887 3.184 2.274.105 4.606.152 6.978.148 2.375.008 4.7-.042 6.977-.148 1.598 0 2.891-1.426 2.891-3.184a59.71 59.71 0 0 0 .133-4.18 56.79 56.79 0 0 0-.127-4.175ZM8.087 11.323V3.648l5.665 3.836-5.665 3.84Z"/></svg>