<svg xmlns="http://www.w3.org/2000/svg" width="40" height="40" fill="none"><rect width="40" height="40" fill="#8BAA36" rx="12"/><path stroke="#FAFAFA" stroke-linecap="round" stroke-linejoin="round" stroke-width="2" d="M8.799 8.896v5.192-.102c0 1.453.634 2.74 1.617 3.573.48.407.798.957.798 1.567v8.496c0 .945.812 1.711 1.812 1.711s1.812-.766 1.812-1.71v-8.497c0-.61.318-1.16.798-1.567.984-.833 1.618-2.12 1.618-3.573v-5.09 5.09M13.025 14.504V8.8M29.332 10c0-.63-.54-1.141-1.208-1.141h-1.207c-2.002 0-3.624 1.532-3.624 3.422v6.845c0 1.487 1.01 2.741 2.416 3.212v5.284c0 .945.811 1.711 1.811 1.711 1 0 1.812-.766 1.812-1.71V10Z"/></svg>