<svg xmlns="http://www.w3.org/2000/svg" width="20" height="17" fill="none">
    <path
        d="M20 2.396c-.75.326-1.544.54-2.356.637A4.063 4.063 0 0 0 19.449.8a8.24 8.24 0 0 1-2.607.98A4.13 4.13 0 0 0 13.847.5C11.58.5 9.744 2.308 9.744 4.537c-.002.31.034.62.106.921a11.696 11.696 0 0 1-8.459-4.22 3.987 3.987 0 0 0-.558 2.029c0 1.4.73 2.637 1.834 3.362A4.062 4.062 0 0 1 .8 6.125v.05c0 1.958 1.416 3.587 3.292 3.958a4.2 4.2 0 0 1-1.081.142c-.26 0-.518-.025-.772-.075.522 1.604 2.039 2.77 3.836 2.804A8.316 8.316 0 0 1 0 14.675 11.612 11.612 0 0 0 6.28 16.5c7.558 0 11.686-6.154 11.686-11.492 0-.175-.005-.35-.013-.52A8.27 8.27 0 0 0 20 2.395Z" />
</svg>